HIERARCHY
ROOT Hips
{
	OFFSET -3.958830 18.904000 13.208200
	CHANNELS 6 Xposition Yposition Zposition Zrotation Yrotation Xrotation 
	JOINT LHipJoint
	{
		OFFSET 0.000000 0.000000 0.000000
		CHANNELS 3 Zrotation Yrotation Xrotation
		JOINT LeftUpLeg
		{
			OFFSET 1.800000 -1.400000 0.085000
			CHANNELS 3 Zrotation Yrotation Xrotation
			JOINT LeftLeg
			{
				OFFSET 2.215000 -6.000000 0.000000
				CHANNELS 3 Zrotation Yrotation Xrotation
				JOINT LeftFoot
				{
					OFFSET 2.500000 -6.900000 0.000000
					CHANNELS 3 Zrotation Yrotation Xrotation
					JOINT LeftToeBase
					{
						OFFSET 0.200000 -0.500000 1.950000
						CHANNELS 3 Zrotation Yrotation Xrotation
						End Site
						{
							OFFSET 0.000000 0.000000 0.000000
						}
					}
				}
			}
		}
	}
	JOINT RHipJoint
	{
		OFFSET 0.000000 0.000000 0.000000
		CHANNELS 3 Zrotation Yrotation Xrotation
		JOINT RightUpLeg
		{
			OFFSET -1.800000 -1.400000 0.085000
			CHANNELS 3 Zrotation Yrotation Xrotation
			JOINT RightLeg
			{
				OFFSET -2.215000 -6.000000 0.000000
				CHANNELS 3 Zrotation Yrotation Xrotation
				JOINT RightFoot
				{
					OFFSET -2.500000 -6.900000 0.000000
					CHANNELS 3 Zrotation Yrotation Xrotation
					JOINT RightToeBase
					{
						OFFSET -0.200000 -0.500000 1.950000
						CHANNELS 3 Zrotation Yrotation Xrotation
						End Site
						{
							OFFSET 0.000000 0.000000 0.000000
						}
					}
				}
			}
		}
	}
	JOINT LowerBack
	{
		OFFSET 0.000000 0.000000 0.000000
		CHANNELS 3 Zrotation Yrotation Xrotation
		JOINT Spine
		{
			OFFSET -0.087000 1.940000 -0.288900
			CHANNELS 3 Zrotation Yrotation Xrotation
			JOINT Spine1
			{
				OFFSET 0.000000 1.950000 0.060000
				CHANNELS 3 Zrotation Yrotation Xrotation
				JOINT Neck
				{
					OFFSET 0.000000 0.000000 0.000000
					CHANNELS 3 Zrotation Yrotation Xrotation
					JOINT Neck1
					{
						OFFSET 0.000000 1.600000 0.340000
						CHANNELS 3 Zrotation Yrotation Xrotation
						JOINT Head
						{
							OFFSET 0.000000 1.667000 -0.240000
							CHANNELS 3 Zrotation Yrotation Xrotation
							End Site
							{
								OFFSET 0.000000 0.000000 0.000000
							}
						}
					}
				}
				JOINT LeftShoulder
				{
					OFFSET 0.000000 0.000000 0.000000
					CHANNELS 3 Zrotation Yrotation Xrotation
					JOINT LeftArm
					{
						OFFSET 2.700000 1.550000 -0.730000
						CHANNELS 3 Zrotation Yrotation Xrotation
						JOINT LeftForeArm
						{
							OFFSET 5.450000 0.000000 0.000000
							CHANNELS 3 Zrotation Yrotation Xrotation
							JOINT LeftHand
							{
								OFFSET 3.450000 0.000000 0.000000
								CHANNELS 3 Zrotation Yrotation Xrotation
								JOINT LeftHandIndex1
								{
									OFFSET 0.750000 0.000000 0.000000
									CHANNELS 3 Zrotation Yrotation Xrotation
									End Site
									{
										OFFSET 0.000000 0.000000 0.000000
									}
								}
							}
						}
					}
				}
				JOINT RightShoulder
				{
					OFFSET 0.000000 0.000000 0.000000
					CHANNELS 3 Zrotation Yrotation Xrotation
					JOINT RightArm
					{
						OFFSET -2.700000 1.550000 -0.730000
						CHANNELS 3 Zrotation Yrotation Xrotation
						JOINT RightForeArm
						{
							OFFSET -5.450000 0.000000 0.000000
							CHANNELS 3 Zrotation Yrotation Xrotation
							JOINT RightHand
							{
								OFFSET -3.450000 0.000000 0.000000
								CHANNELS 3 Zrotation Yrotation Xrotation
								JOINT RightHandIndex1
								{
									OFFSET -0.750000 0.000000 0.000000
									CHANNELS 3 Zrotation Yrotation Xrotation
									End Site
									{
										OFFSET 0.000000 0.000000 0.000000
									}
								}
							}
						}
					}
				}
			}
		}
	}
}
MOTION
Frames: 6
Frame Time: 0.016667
-0.308320 17.111390 -2.477220 6.533073 10.207519 -7.313246 -14.968667 12.377729 4.705396 5.101537 -2.546670 -41.391814 4.730819 14.959263 68.504403 1.758615 11.743048 0.460290 0.683580 0.457490 0.585310 18.312610 -11.494263 2.231352 -13.070409 2.518961 -10.345064 5.935140 -5.879957 21.375675 -0.554569 -3.559866 3.117768 -0.050830 -0.545380 0.036800 -4.235084 0.450844 -8.726263 14.005002 -1.878662 36.877619 -11.570782 5.858056 2.177188 5.256289 -10.391558 -18.032859 -21.626405 6.207758 61.260411 7.979460 -8.217160 -26.063570 -29.136584 -14.428578 6.063918 -62.448833 9.695517 -13.958470 -0.840122 -10.675618 -1.396672 -2.755251 2.977866 0.689560 -0.690580 0.537270 0.162540 19.029584 30.974932 14.669715 50.882603 27.183797 -18.249192 -108.016808 57.701740 -85.192528 2.911262 -0.041693 0.267820 -0.019190 -0.432910 -0.048720 
-0.282020 17.095520 -2.472250 5.848185 11.599400 -7.344931 -14.893898 12.430132 4.518492 4.920681 -2.668305 -39.421108 4.112911 13.825981 64.430737 1.528498 10.943383 0.681119 0.674820 0.437690 0.573500 18.356345 -11.627585 2.318994 -12.875531 2.594153 -10.297584 6.382930 -6.093643 21.751389 -0.569607 -3.667105 3.075323 -0.051420 -0.526950 0.051580 -4.453318 0.665757 -8.647039 16.201646 -2.882686 35.891288 -13.179753 5.161443 2.764245 5.683170 -10.087247 -17.682587 -20.698522 5.767038 61.342185 7.640230 -8.306450 -26.437960 -29.969269 -14.550186 5.974388 -60.985817 9.436317 -13.264409 -0.670119 -10.164754 -1.356121 -2.769266 2.977355 0.699970 -0.677720 0.527730 0.160820 18.767256 30.599736 14.407157 51.788835 28.057332 -17.938980 -106.914659 56.668418 -83.137604 2.856813 -0.128255 0.255190 -0.011470 -0.410830 -0.053830 
-0.233820 17.062090 -2.456670 4.844491 13.632006 -7.354778 -14.774288 12.581071 4.139212 4.681114 -2.528220 -35.702756 3.301111 11.958296 57.263381 1.172375 9.444402 1.118218 0.702890 0.458870 0.596640 18.413360 -11.890394 2.473032 -12.449277 2.675005 -10.374755 6.765638 -6.306269 22.386424 -0.598762 -3.788638 3.023349 -0.033860 -0.545520 0.060150 -4.796299 1.041668 -8.485139 19.487273 -4.005535 33.797329 -15.596546 4.289252 3.786004 6.416739 -9.386109 -17.316264 -18.647875 4.894016 62.504521 6.648680 -8.394780 -26.579230 -31.263108 -14.630134 5.848503 -58.888988 9.225172 -12.311866 -0.007895 -9.190435 -1.258965 -2.751425 2.996605 0.703480 -0.682610 0.534560 0.165470 18.256128 29.895048 14.139204 53.830673 29.415319 -17.389376 -105.235762 54.567744 -79.869386 2.804647 -0.305412 0.261780 -0.020810 -0.423200 -0.060960 
-0.181340 17.003900 -2.438520 3.597997 15.731480 -7.078929 -14.655026 12.703566 3.754049 5.196227 -2.244489 -31.907777 1.781117 10.397987 49.159794 0.842648 7.820476 1.636300 0.724060 0.481940 0.620160 18.478572 -12.146003 2.636011 -11.649420 2.745835 -10.690752 7.058178 -6.435413 22.782151 -0.619048 -3.867623 2.983276 -0.021050 -0.555110 0.077560 -5.170382 1.471832 -8.316307 23.210475 -4.817165 30.731448 -18.073632 3.539170 5.107684 7.261628 -8.225915 -16.898364 -15.453788 3.256051 63.201289 4.598530 -8.408480 -25.274750 -32.480933 -14.691755 5.910589 -56.639497 9.093817 -11.613421 0.782368 -9.189481 -1.225437 -2.736807 3.039493 0.673600 -0.669600 0.539800 0.176070 17.431482 28.859341 13.803476 55.998852 30.633334 -16.308203 -103.567063 52.122211 -76.611863 2.761408 -0.493183 0.281900 -0.040450 -0.445460 -0.054040 
-0.126840 16.946220 -2.419920 2.331472 17.923030 -7.192599 -14.568624 12.873668 3.370663 6.051716 -1.800124 -27.985821 0.312172 9.026896 41.368746 0.567608 6.291465 2.149019 0.760590 0.536850 0.639100 18.513296 -12.365939 2.771574 -10.843360 2.827928 -10.722482 7.185877 -6.563620 23.481385 -0.650704 -3.974468 2.950885 0.006970 -0.578940 0.078010 -5.475942 1.773971 -8.138516 26.531355 -5.327509 28.107147 -20.304813 3.049759 6.378482 8.169522 -6.645578 -16.743336 -11.737426 1.219530 64.488312 2.840730 -8.669530 -24.331300 -34.680398 -15.288669 6.186329 -53.464984 9.440013 -10.967232 1.723034 -9.420562 -1.191624 -2.682944 3.099684 0.646170 -0.665140 0.550060 0.196240 17.512451 28.042929 13.640641 56.642621 30.779035 -15.624508 -103.610604 49.894461 -75.184435 2.727129 -0.642687 0.305250 -0.055380 -0.480510 -0.045950 
-0.086920 16.889000 -2.411440 1.781037 20.498995 -7.579487 -14.546062 13.065299 3.033703 6.628752 -1.406743 -23.686644 -1.193042 7.777862 33.562860 0.357221 4.904822 2.651865 0.772590 0.561200 0.647900 18.482755 -12.508516 2.881022 -11.126109 3.098208 -10.796440 8.072514 -7.023828 24.831924 -0.695969 -4.212459 2.869857 0.015210 -0.590570 0.074570 -5.628547 1.875947 -8.005363 27.989382 -5.586046 26.928944 -21.031217 2.549237 7.368282 8.706300 -5.463474 -16.690963 -8.931212 -0.589628 65.382055 1.943650 -9.128310 -24.632600 -35.705851 -15.847435 6.443012 -51.580023 9.135208 -10.650780 1.599363 -9.721837 -1.188353 -2.643122 3.119329 0.635000 -0.667800 0.560960 0.206320 17.371734 27.606826 13.677770 56.392184 30.485624 -15.523322 -104.879681 48.013975 -75.411652 2.716025 -0.728113 0.316320 -0.051250 -0.498270 -0.038270 
